# xmcd
#
# Track frame offsets:
# 150
# 2418
# 11759
# 23312
# 35196
# 37045
# 44331
# 45514
# 54684
# 58784
# 74910
# 77178
# 86429
# 91291
# 107011
# 109156
# 116583
# 122919
# 124995
# 144816
# 146291
# 155025
# 157086
# 163598
# 166795
# 177190
# 184587
# 187179
# 195501
# 197734
# 214582
# 216147
# 226397
# 228479
# 237013
# 240194
# 249470
# 250573
# 257095
# 267245
# 268136
# 276317
# 288826
# 291519
# 303062
# 304572
# 312483
# 319040
# 320213
# 329352
# 330425
#
# Disc length: 4595 seconds
#
#
# Revision: 0
# Processed by: cddbd v1.5.1PL2 Copyright (c) Steve Scherf et al.
# Submitted via: FreeRIP 2.945 
#
DISCID=df11f133
DTITLE=César Menotti and Fabiano - Ao vivo no observatório
DYEAR=2006
DGENRE=Country
TTITLE0=Apresentação
TTITLE1=Você vai ver
TTITLE2=Ligação urbana
TTITLE3=Como um anjo
TTITLE4=
TTITLE5=Vem ficar comigo
TTITLE6=
TTITLE7=Temporal de amor
TTITLE8=
TTITLE9=Evidências
TTITLE10=
TTITLE11=Sem medo de ser feliz
TTITLE12=
TTITLE13=Telefone mudo
TTITLE14=
TTITLE15=Boate azul
TTITLE16=Fio de Cabelo
TTITLE17=
TTITLE18=Deixa eu te amar
TTITLE19=
TTITLE20=Ela é Demais
TTITLE21=
TTITLE22=Pense em Mim
TTITLE23=
TTITLE24=Tô por ai
TTITLE25=Não olhe assim
TTITLE26=
TTITLE27=Coração está em pedaços
TTITLE28=
TTITLE29=Dois corações e uma história
TTITLE30=
TTITLE31=Passou da conta
TTITLE32=
TTITLE33=Página de amigos
TTITLE34=
TTITLE35=Ainda ontem chorei de saudade
TTITLE36=
TTITLE37=Entre tapas e beijos
TTITLE38=É o amor
TTITLE39=
TTITLE40=60 dias apaixonado
TTITLE41=Vida cigana
TTITLE42=
TTITLE43=Tocando em frente
TTITLE44=
TTITLE45=New York
TTITLE46=24 horas de amor
TTITLE47=
TTITLE48=Vida vazia
TTITLE49=
TTITLE50=Casos marcados
EXTD=Muito bom esse show!!!!
EXTT0=
EXTT1=
EXTT2=
EXTT3=
EXTT4=
EXTT5=
EXTT6=
EXTT7=
EXTT8=
EXTT9=
EXTT10=
EXTT11=
EXTT12=
EXTT13=
EXTT14=
EXTT15=
EXTT16=
EXTT17=
EXTT18=
EXTT19=
EXTT20=
EXTT21=
EXTT22=
EXTT23=
EXTT24=
EXTT25=
EXTT26=
EXTT27=
EXTT28=
EXTT29=
EXTT30=
EXTT31=
EXTT32=
EXTT33=
EXTT34=
EXTT35=
EXTT36=
EXTT37=
EXTT38=
EXTT39=
EXTT40=
EXTT41=
EXTT42=
EXTT43=
EXTT44=
EXTT45=
EXTT46=
EXTT47=
EXTT48=
EXTT49=
EXTT50=
PLAYORDER=
